<svg width="44" height="44" viewBox="0 0 44 44" fill="none" xmlns="http://www.w3.org/2000/svg">
<g clip-path="url(#clip0_26_113)">
<path d="M42.9934 10.8277C42.484 8.40331 41.2817 6.17899 39.5324 4.42484C37.7831 2.67068 35.5622 1.46215 33.1393 0.946C30.6661 0.374 26.5979 0 21.9999 0C17.4019 0 13.3338 0.374 10.8606 0.946C8.43766 1.46215 6.2167 2.67068 4.46743 4.42484C2.71816 6.17899 1.51582 8.40331 1.00642 10.8277C0.434423 13.31 0.0622559 17.3892 0.0622559 22C0.0622559 26.6108 0.434423 30.69 1.00642 33.1723C1.51582 35.5967 2.71816 37.821 4.46743 39.5752C6.2167 41.3293 8.43766 42.5378 10.8606 43.054C13.3338 43.626 17.4019 44 21.9999 44C26.5979 44 30.6661 43.626 33.1393 43.054C35.5622 42.5378 37.7831 41.3293 39.5324 39.5752C41.2817 37.821 42.484 35.5967 42.9934 33.1723C43.5636 30.69 43.9376 26.6127 43.9376 22C43.9376 17.3892 43.5654 13.31 42.9934 10.8277ZM32.2263 33.5537L32.2208 33.5555C31.4361 33.8342 30.0849 34.0743 28.3671 34.2467L28.0976 34.2723C27.9251 34.2881 27.7521 34.2484 27.6037 34.159C27.4554 34.0697 27.3394 33.9353 27.2726 33.7755C27.0648 33.2799 26.7402 32.842 26.3265 32.4991C25.9127 32.1562 25.4221 31.9186 24.8966 31.8065C24.2531 31.658 23.1953 31.5608 21.9999 31.5608C20.8046 31.5608 19.7468 31.658 19.1033 31.8065C18.5817 31.9179 18.0945 32.1528 17.6826 32.4916C17.2708 32.8305 16.9463 33.2632 16.7364 33.7535C16.6655 33.9196 16.5436 34.059 16.3885 34.1516C16.2333 34.2441 16.0528 34.2851 15.8729 34.2687C15.7941 34.2607 15.7153 34.2534 15.6364 34.2467C13.9168 34.0743 12.5638 33.836 11.7773 33.5555L11.7718 33.5537C11.5062 33.4536 11.2775 33.2748 11.1163 33.0412C10.9551 32.8076 10.8691 32.5303 10.8698 32.2465C10.8698 32.1878 10.8753 32.1255 10.8789 32.0668C11.0128 30.272 12.0999 26.0682 13.7243 21.2685C15.5833 15.7832 17.5248 11.3428 18.4011 10.4757C18.6069 10.2606 18.8607 10.0972 19.1418 9.999L19.1491 9.99533C19.7248 9.801 20.7844 9.669 21.9981 9.669C23.2136 9.669 24.2733 9.79917 24.8471 9.99533L24.8563 9.999C25.1381 10.0967 25.3926 10.2601 25.5988 10.4757C26.4751 11.341 28.4166 15.7832 30.2719 21.2685C31.8963 26.0663 32.9834 30.2702 33.1173 32.0668C33.1209 32.1255 33.1264 32.1878 33.1264 32.2465C33.1272 32.5301 33.0415 32.8072 32.8806 33.0408C32.7198 33.2744 32.4915 33.4533 32.2263 33.5537Z" fill="#282828"/>
</g>
<defs>
<clipPath id="clip0_26_113">
<rect width="44" height="44" fill="white"/>
</clipPath>
</defs>
</svg>
