<?xml version="1.0" standalone="no"?>
<!DOCTYPE svg PUBLIC "-//W3C//DTD SVG 20010904//EN"
 "http://www.w3.org/TR/2001/REC-SVG-20010904/DTD/svg10.dtd">
<svg version="1.0" xmlns="http://www.w3.org/2000/svg"
 width="150px" height="150px" viewBox="0 0 2048.000000 2048.000000"
 preserveAspectRatio="xMidYMid meet">

<g transform="translate(0.000000,2048.000000) scale(0.100000,-0.100000)"
fill="#000000" stroke="none">
<path d="M10778 14283 c7 -3 16 -2 19 1 4 3 -2 6 -13 5 -11 0 -14 -3 -6 -6z"/>
<path d="M9558 14243 c7 -3 16 -2 19 1 4 3 -2 6 -13 5 -11 0 -14 -3 -6 -6z"/>
<path d="M9498 14233 c7 -3 16 -2 19 1 4 3 -2 6 -13 5 -11 0 -14 -3 -6 -6z"/>
<path d="M9448 14223 c6 -2 18 -2 25 0 6 3 1 5 -13 5 -14 0 -19 -2 -12 -5z"/>
<path d="M9358 14203 c7 -3 16 -2 19 1 4 3 -2 6 -13 5 -11 0 -14 -3 -6 -6z"/>
<path d="M9128 14143 c7 -3 16 -2 19 1 4 3 -2 6 -13 5 -11 0 -14 -3 -6 -6z"/>
<path d="M12974 13272 c17 -18 34 -32 38 -32 15 0 0 18 -35 41 l-32 22 29 -31z"/>
<path d="M13030 13226 c0 -2 8 -10 18 -17 15 -13 16 -12 3 4 -13 16 -21 21
-21 13z"/>
<path d="M13080 13180 c6 -11 15 -20 20 -20 6 0 2 9 -7 20 -10 11 -19 20 -21
20 -1 0 2 -9 8 -20z"/>
<path d="M13165 13090 c10 -11 20 -20 23 -20 3 0 -3 9 -13 20 -10 11 -20 20
-23 20 -3 0 3 -9 13 -20z"/>
<path d="M13209 13052 c5 -10 17 -24 25 -31 9 -8 13 -18 9 -24 -3 -6 -1 -7 5
-3 9 5 4 18 -14 42 -29 37 -40 45 -25 16z"/>
<path d="M13266 12984 c-3 -8 -2 -13 3 -10 12 8 33 -19 23 -29 -4 -5 -2 -5 5
-2 7 4 32 -19 62 -56 28 -35 58 -70 68 -78 18 -14 -53 74 -119 148 -27 30 -38
37 -42 27z"/>
<path d="M13495 12710 c17 -19 36 -40 43 -48 6 -7 17 -23 23 -34 6 -11 19 -29
29 -41 53 -64 69 -81 70 -75 0 4 -6 13 -12 20 -7 7 -29 35 -48 61 -70 96 -91
121 -113 135 -16 11 -14 7 8 -18z"/>
<path d="M10312 12620 c0 -14 2 -19 5 -12 2 6 2 18 0 25 -3 6 -5 1 -5 -13z"/>
<path d="M10335 12549 c-4 -6 -5 -12 -2 -15 2 -3 7 2 10 11 7 17 1 20 -8 4z"/>
<path d="M13654 12488 c-4 -7 -3 -8 5 -4 6 4 14 0 18 -11 7 -20 43 -69 43 -59
0 9 -49 86 -55 86 -2 0 -7 -5 -11 -12z"/>
<path d="M13751 12352 c13 -24 30 -49 38 -55 18 -14 -10 36 -41 74 -16 20 -16
17 3 -19z"/>
<path d="M10426 12307 c3 -10 9 -15 12 -12 3 3 0 11 -7 18 -10 9 -11 8 -5 -6z"/>
<path d="M13796 12263 c-4 -10 -4 -14 0 -10 4 4 14 1 22 -6 13 -10 14 -9 3 11
-14 27 -17 27 -25 5z"/>
<path d="M10233 12203 c2 -19 -1 -30 -7 -26 -5 4 -7 -1 -3 -11 4 -10 7 -22 7
-28 0 -6 7 -7 16 -4 12 5 15 2 10 -9 -3 -9 -2 -13 4 -10 6 3 10 1 10 -6 0 -7
2 -10 5 -8 2 3 -7 34 -21 69 -17 46 -23 55 -21 33z"/>
<path d="M13840 12216 c0 -11 30 -66 36 -66 2 0 -3 15 -12 33 -19 36 -24 44
-24 33z"/>
<path d="M13874 12129 c-4 -7 -3 -9 4 -5 5 3 13 0 15 -6 4 -9 6 -10 6 -1 1 17
-16 25 -25 12z"/>
<path d="M13906 12087 c3 -10 9 -15 12 -12 3 3 0 11 -7 18 -10 9 -11 8 -5 -6z"/>
<path d="M13931 12032 c6 -18 15 -35 20 -38 5 -3 4 7 -3 23 -17 41 -30 53 -17
15z"/>
<path d="M10307 12015 c9 -19 18 -33 20 -32 5 6 -21 67 -29 67 -4 0 0 -16 9
-35z"/>
<path d="M10330 11961 c0 -5 7 -12 16 -15 14 -5 15 -4 4 9 -14 17 -20 19 -20
6z"/>
<path d="M13981 11935 c0 -5 6 -21 14 -35 8 -14 14 -20 14 -15 0 6 -6 21 -14
35 -8 14 -14 21 -14 15z"/>
<path d="M9769 11913 c-13 -16 -12 -17 4 -4 16 13 21 21 13 21 -2 0 -10 -8
-17 -17z"/>
<path d="M10400 11864 c1 -10 50 -73 50 -63 0 3 -11 20 -25 39 -14 19 -25 30
-25 24z"/>
<path d="M14010 11861 c0 -6 4 -13 10 -16 6 -3 7 1 4 9 -7 18 -14 21 -14 7z"/>
<path d="M14036 11805 c8 -34 12 -41 20 -33 3 4 -2 19 -10 35 l-16 28 6 -30z"/>
<path d="M9980 11740 c-6 -11 -8 -20 -6 -20 3 0 10 9 16 20 6 11 8 20 6 20 -3
0 -10 -9 -16 -20z"/>
<path d="M14060 11751 c0 -6 9 -29 20 -51 11 -21 29 -64 41 -95 11 -31 23 -54
26 -51 4 4 -73 194 -83 205 -2 2 -4 -1 -4 -8z"/>
<path d="M10551 11686 c13 -16 74 -80 134 -141 61 -61 123 -127 138 -146 19
-23 24 -26 16 -10 -6 13 -79 92 -162 175 -83 83 -139 138 -126 122z"/>
<path d="M14160 11505 c0 -5 5 -17 10 -25 5 -8 10 -10 10 -5 0 6 -5 17 -10 25
-5 8 -10 11 -10 5z"/>
<path d="M14201 11390 c0 -8 4 -24 9 -35 5 -13 9 -14 9 -5 0 8 -4 24 -9 35 -5
13 -9 14 -9 5z"/>
<path d="M10850 11356 c0 -2 8 -10 18 -17 15 -13 16 -12 3 4 -13 16 -21 21
-21 13z"/>
<path d="M14221 11320 c0 -8 4 -22 9 -30 12 -18 12 -2 0 25 -6 13 -9 15 -9 5z"/>
<path d="M10905 11269 c-4 -6 -5 -12 -2 -15 2 -3 7 2 10 11 7 17 1 20 -8 4z"/>
<path d="M10170 11249 c-7 -11 -10 -23 -7 -25 2 -2 9 7 15 21 14 30 7 33 -8 4z"/>
<path d="M14242 11255 c0 -11 3 -29 8 -40 11 -25 11 1 0 35 -6 20 -8 21 -8 5z"/>
<path d="M10926 11247 c3 -10 9 -15 12 -12 3 3 0 11 -7 18 -10 9 -11 8 -5 -6z"/>
<path d="M10946 11207 c3 -10 9 -15 12 -12 3 3 0 11 -7 18 -10 9 -11 8 -5 -6z"/>
<path d="M14261 11175 c1 -19 18 -51 18 -35 0 8 -4 22 -9 30 -5 8 -9 11 -9 5z"/>
<path d="M14283 11073 c1 -23 6 -38 10 -34 5 5 4 24 -1 42 l-10 34 1 -42z"/>
<path d="M10009 11033 c-13 -16 -12 -17 4 -4 9 7 17 15 17 17 0 8 -8 3 -21
-13z"/>
<path d="M14302 11010 c0 -14 2 -19 5 -12 2 6 2 18 0 25 -3 6 -5 1 -5 -13z"/>
<path d="M14312 10960 c0 -14 2 -19 5 -12 2 6 2 18 0 25 -3 6 -5 1 -5 -13z"/>
<path d="M7743 10939 c-145 -24 -332 -123 -463 -245 -25 -24 -58 -52 -73 -65
l-29 -22 -66 32 c-160 76 -272 58 -472 -73 -101 -67 -141 -99 -260 -206 -130
-117 -189 -158 -204 -143 -12 12 -6 -335 9 -492 37 -386 93 -636 219 -972 239
-638 733 -1326 1278 -1780 293 -244 707 -507 993 -630 98 -42 374 -147 470
-178 460 -149 1096 -208 1615 -150 363 42 664 119 1020 262 368 148 666 313
945 522 399 299 741 666 1017 1091 122 187 281 483 337 630 198 511 280 873
311 1360 10 163 12 391 3 358 -5 -21 -4 -21 -38 -8 -48 18 -210 133 -255 180
-13 13 -150 120 -196 152 -192 135 -394 169 -546 92 -26 -13 -52 -24 -58 -24
-6 0 -47 38 -93 83 -94 96 -185 154 -301 191 -233 76 -433 59 -687 -57 -141
-64 -225 -128 -414 -312 -138 -135 -183 -165 -320 -213 -60 -22 -162 -60 -225
-85 -108 -43 -144 -51 -110 -23 15 11 40 50 40 62 0 3 -5 4 -11 2 -6 -2 -9 -6
-7 -9 6 -11 -137 -144 -261 -244 -222 -178 -312 -282 -417 -480 -110 -207
-132 -341 -154 -930 -11 -288 -34 -520 -52 -509 -4 3 -8 26 -8 52 0 26 -7 88
-14 137 -8 50 -22 180 -31 290 -25 325 -44 473 -75 600 -79 330 -224 536 -590
840 -74 62 -160 139 -190 171 -30 32 -59 58 -63 56 -5 -1 -6 2 -2 8 9 15 -44
82 -57 74 -8 -5 -9 -1 -4 12 5 14 4 16 -5 7 -13 -13 -3 -37 12 -28 5 4 9 -1 9
-10 0 -9 5 -13 10 -10 7 4 9 -3 6 -20 -3 -15 -3 -25 0 -22 3 3 15 -4 26 -15
11 -11 18 -22 15 -24 -2 -2 -44 12 -93 31 -48 20 -137 52 -196 71 -184 60
-207 73 -336 197 -198 190 -350 297 -506 358 -156 60 -317 81 -453 58z m94
-509 c13 -50 37 -121 56 -158 105 -214 343 -489 557 -642 183 -131 286 -179
650 -304 235 -81 389 -148 487 -213 78 -51 232 -201 305 -296 103 -135 212
-334 266 -487 34 -99 88 -345 102 -475 16 -139 26 -1445 11 -1445 -17 0 -18 6
-31 230 -21 376 -36 498 -87 705 -122 504 -273 752 -578 951 -107 69 -215 122
-409 200 -413 167 -568 265 -803 505 -115 118 -164 179 -253 315 -184 282
-295 619 -325 992 -8 98 2 212 19 212 6 0 21 -41 33 -90z m5001 -47 c-21 -331
-93 -619 -215 -858 -138 -270 -363 -536 -608 -720 -170 -127 -329 -211 -570
-302 -228 -86 -346 -149 -500 -269 -159 -122 -267 -284 -382 -569 -94 -234
-152 -499 -174 -800 0 -5 -4 -1 -8 10 -4 11 -4 108 0 215 4 107 8 321 8 476 2
539 44 768 195 1060 80 154 141 239 256 355 150 152 292 238 510 307 466 148
546 180 748 298 121 71 155 96 263 191 138 119 265 274 351 428 48 84 64 124
99 244 11 41 24 69 28 63 3 -6 3 -64 -1 -129z"/>
<path d="M14322 10905 c0 -16 2 -22 5 -12 2 9 2 23 0 30 -3 6 -5 -1 -5 -18z"/>
<path d="M9502 10895 c0 -16 2 -22 5 -12 2 9 2 23 0 30 -3 6 -5 -1 -5 -18z"/>
<path d="M10000 10898 c0 -2 14 -16 30 -31 17 -16 27 -22 24 -13 -5 12 -54 52
-54 44z"/>
<path d="M11383 10840 c0 -25 2 -35 4 -22 2 12 2 32 0 45 -2 12 -4 2 -4 -23z"/>
<path d="M14331 10844 c0 -11 3 -14 6 -6 3 7 2 16 -1 19 -3 4 -6 -2 -5 -13z"/>
<path d="M9511 10834 c0 -11 3 -14 6 -6 3 7 2 16 -1 19 -3 4 -6 -2 -5 -13z"/>
<path d="M10070 10838 c0 -3 7 -19 15 -34 8 -16 15 -22 15 -14 -1 8 -7 24 -15
34 -8 11 -15 17 -15 14z"/>
<path d="M14342 10785 c0 -16 2 -22 5 -12 2 9 2 23 0 30 -3 6 -5 -1 -5 -18z"/>
<path d="M9520 10795 c0 -5 5 -17 10 -25 5 -8 10 -10 10 -5 0 6 -5 17 -10 25
-5 8 -10 11 -10 5z"/>
<path d="M10120 10751 c0 -6 4 -13 10 -16 6 -3 7 1 4 9 -7 18 -14 21 -14 7z"/>
<path d="M6211 10734 c0 -11 3 -14 6 -6 3 7 2 16 -1 19 -3 4 -6 -2 -5 -13z"/>
<path d="M9121 10704 c0 -11 3 -14 6 -6 3 7 2 16 -1 19 -3 4 -6 -2 -5 -13z"/>
<path d="M14352 10700 c0 -14 2 -19 5 -12 2 6 2 18 0 25 -3 6 -5 1 -5 -13z"/>
<path d="M9131 10644 c0 -11 3 -14 6 -6 3 7 2 16 -1 19 -3 4 -6 -2 -5 -13z"/>
<path d="M14362 10625 c0 -16 2 -22 5 -12 2 9 2 23 0 30 -3 6 -5 -1 -5 -18z"/>
<path d="M10889 10623 c-13 -16 -12 -17 4 -4 9 7 17 15 17 17 0 8 -8 3 -21
-13z"/>
<path d="M10850 10578 c-12 -22 -12 -22 6 -6 10 10 15 20 12 24 -4 3 -12 -5
-18 -18z"/>
<path d="M9650 10567 c0 -2 13 -16 29 -31 23 -22 30 -24 34 -12 4 10 1 13 -9
9 -7 -3 -14 -1 -14 4 0 4 -9 14 -20 21 -11 7 -20 11 -20 9z"/>
<path d="M11320 10541 c0 -6 4 -13 10 -16 6 -3 7 1 4 9 -7 18 -14 21 -14 7z"/>
<path d="M9171 10504 c0 -11 3 -14 6 -6 3 7 2 16 -1 19 -3 4 -6 -2 -5 -13z"/>
<path d="M9720 10506 c0 -2 8 -10 18 -17 15 -13 16 -12 3 4 -13 16 -21 21 -21
13z"/>
<path d="M10740 10490 c8 -5 20 -10 25 -10 6 0 3 5 -5 10 -8 5 -19 10 -25 10
-5 0 -3 -5 5 -10z"/>
<path d="M11282 10456 c-17 -37 -15 -45 4 -18 8 12 14 27 12 33 -2 6 -9 -1
-16 -15z"/>
<path d="M10720 10460 c-8 -5 -12 -12 -9 -15 4 -3 12 1 19 10 14 17 11 19 -10
5z"/>
<path d="M9824 10427 c-4 -6 -3 -9 1 -4 5 4 17 0 27 -10 10 -9 20 -14 23 -11
3 3 -6 13 -19 22 -19 12 -27 13 -32 3z"/>
<path d="M6181 10414 c0 -11 3 -14 6 -6 3 7 2 16 -1 19 -3 4 -6 -2 -5 -13z"/>
<path d="M9207 10416 c-4 -10 -3 -15 3 -11 6 3 10 1 10 -6 0 -7 3 -10 6 -6 3
3 2 13 -4 22 -8 16 -9 16 -15 1z"/>
<path d="M10646 10405 c-11 -8 -15 -15 -9 -15 6 0 16 7 23 15 16 19 11 19 -14
0z"/>
<path d="M14382 10370 c0 -19 2 -27 5 -17 2 9 2 25 0 35 -3 9 -5 1 -5 -18z"/>
<path d="M9230 10369 c0 -5 5 -7 10 -4 6 3 10 8 10 11 0 2 -4 4 -10 4 -5 0
-10 -5 -10 -11z"/>
<path d="M11233 10368 c-20 -27 -23 -37 -11 -44 7 -4 10 -3 5 1 -4 5 0 19 8
32 16 24 14 32 -2 11z"/>
<path d="M9980 10316 c0 -2 7 -9 15 -16 9 -7 15 -8 15 -2 0 5 -7 12 -15 16 -8
3 -15 4 -15 2z"/>
<path d="M10431 10249 c-13 -11 -22 -22 -19 -24 2 -3 15 6 28 20 28 30 24 32
-9 4z"/>
<path d="M10065 10240 c10 -11 20 -20 23 -20 3 0 -3 9 -13 20 -10 11 -20 20
-23 20 -3 0 3 -9 13 -20z"/>
<path d="M10164 10149 c-3 -6 2 -19 12 -30 19 -18 19 -18 20 9 1 15 -1 21 -3
15 -3 -7 -9 -13 -15 -13 -6 0 -8 7 -4 15 6 17 0 20 -10 4z"/>
<path d="M10300 10098 c-15 -21 -17 -28 -6 -19 16 13 41 51 33 51 -2 0 -14
-15 -27 -32z"/>
<path d="M10212 10085 c35 -84 58 -116 58 -81 0 8 3 23 6 33 4 12 3 14 -3 6
-10 -14 -23 -7 -47 27 -10 14 -16 21 -14 15z"/>
</g>
</svg>
