<svg width="53" height="16" viewBox="0 0 53 16" fill="none" xmlns="http://www.w3.org/2000/svg">
<path d="M0.960795 12V0.945454H5.32216C6.16061 0.945454 6.87491 1.10559 7.46506 1.42585C8.05521 1.74252 8.50502 2.18333 8.81449 2.74829C9.12756 3.30966 9.28409 3.95739 9.28409 4.69148C9.28409 5.42557 9.12576 6.0733 8.80909 6.63466C8.49242 7.19602 8.03362 7.63324 7.43267 7.94631C6.83532 8.25937 6.11203 8.41591 5.26278 8.41591H2.48295V6.5429H4.88494C5.33475 6.5429 5.7054 6.46553 5.99687 6.3108C6.29195 6.15246 6.51146 5.93475 6.6554 5.65767C6.80294 5.37699 6.8767 5.05492 6.8767 4.69148C6.8767 4.32443 6.80294 4.00417 6.6554 3.73068C6.51146 3.4536 6.29195 3.23949 5.99687 3.08835C5.7018 2.93362 5.32756 2.85625 4.87415 2.85625H3.29801V12H0.960795ZM12.9006 12.1565C12.3716 12.1565 11.9002 12.0648 11.4864 11.8813C11.0725 11.6941 10.7451 11.4188 10.504 11.0554C10.2665 10.6884 10.1477 10.2313 10.1477 9.68438C10.1477 9.22377 10.2323 8.83693 10.4014 8.52386C10.5705 8.2108 10.8009 7.9589 11.0923 7.76818C11.3838 7.57746 11.7149 7.43352 12.0855 7.33636C12.4598 7.2392 12.852 7.17083 13.2622 7.13125C13.7444 7.08087 14.133 7.03409 14.4281 6.99091C14.7232 6.94413 14.9373 6.87576 15.0705 6.7858C15.2036 6.69583 15.2702 6.56269 15.2702 6.38636V6.35398C15.2702 6.01212 15.1622 5.74763 14.9463 5.56051C14.734 5.37339 14.4317 5.27983 14.0395 5.27983C13.6257 5.27983 13.2964 5.37159 13.0517 5.55511C12.807 5.73504 12.6451 5.96174 12.5659 6.23523L10.4392 6.0625C10.5472 5.55871 10.7595 5.1233 11.0761 4.75625C11.3928 4.38561 11.8012 4.10133 12.3014 3.90341C12.8052 3.70189 13.3882 3.60114 14.0503 3.60114C14.5109 3.60114 14.9517 3.65511 15.3727 3.76307C15.7973 3.87102 16.1734 4.03835 16.5009 4.26506C16.8319 4.49176 17.0928 4.78324 17.2835 5.13949C17.4742 5.49214 17.5696 5.91496 17.5696 6.40795V12H15.3889V10.8503H15.3241C15.191 11.1094 15.0129 11.3379 14.7898 11.5358C14.5667 11.7301 14.2986 11.883 13.9855 11.9946C13.6724 12.1026 13.3108 12.1565 12.9006 12.1565ZM13.5591 10.5696C13.8973 10.5696 14.196 10.503 14.4551 10.3699C14.7142 10.2331 14.9175 10.0496 15.0651 9.81932C15.2126 9.58902 15.2864 9.32812 15.2864 9.03665V8.15682C15.2144 8.2036 15.1154 8.24678 14.9895 8.28636C14.8671 8.32235 14.7286 8.35653 14.5739 8.38892C14.4191 8.41771 14.2644 8.4447 14.1097 8.46989C13.9549 8.49148 13.8146 8.51127 13.6886 8.52926C13.4187 8.56884 13.183 8.63182 12.9815 8.71818C12.78 8.80455 12.6235 8.9215 12.5119 9.06903C12.4004 9.21297 12.3446 9.3929 12.3446 9.60881C12.3446 9.92188 12.458 10.1612 12.6847 10.3267C12.915 10.4886 13.2064 10.5696 13.5591 10.5696ZM20.4763 15.1091C20.1848 15.1091 19.9113 15.0857 19.6558 15.0389C19.4039 14.9957 19.1952 14.94 19.0297 14.8716L19.5479 13.1551C19.8178 13.2379 20.0607 13.2829 20.2766 13.2901C20.4961 13.2973 20.685 13.2469 20.8433 13.1389C21.0053 13.031 21.1366 12.8474 21.2374 12.5884L21.3723 12.2375L18.3982 3.70909H20.8163L22.5328 9.79773H22.6192L24.3518 3.70909H26.7862L23.5638 12.896C23.409 13.3422 23.1985 13.7309 22.9322 14.0619C22.6696 14.3966 22.3367 14.6539 21.9337 14.8338C21.5306 15.0173 21.0448 15.1091 20.4763 15.1091ZM28.5135 0.945454H29.6794L33.6899 10.575H33.7871L37.7976 0.945454H38.9635V12H38.0135V3.07756H37.9271L34.1973 12H33.2797L29.5499 3.07756H29.4635V12H28.5135V0.945454ZM45.0548 12.1727C44.2812 12.1727 43.6118 11.9928 43.0469 11.633C42.4819 11.2695 42.0447 10.7675 41.7352 10.127C41.4294 9.48286 41.2764 8.74157 41.2764 7.90313C41.2764 7.06828 41.4294 6.32699 41.7352 5.67926C42.0447 5.02794 42.4711 4.51875 43.0145 4.1517C43.5615 3.78106 44.193 3.59574 44.9091 3.59574C45.3589 3.59574 45.7925 3.6785 46.2099 3.84403C46.6274 4.00597 47.0016 4.25606 47.3327 4.59432C47.6673 4.92898 47.9318 5.3518 48.1261 5.86278C48.3205 6.37017 48.4176 6.97112 48.4176 7.66563V8.14063H41.9403V7.29318H47.4352C47.4352 6.76061 47.3273 6.28201 47.1114 5.85739C46.8991 5.42917 46.6022 5.09091 46.2207 4.84261C45.8429 4.59432 45.4057 4.47017 44.9091 4.47017C44.3837 4.47017 43.9213 4.61051 43.5219 4.89119C43.1224 5.17187 42.8094 5.54252 42.5827 6.00313C42.3596 6.46373 42.2462 6.96752 42.2426 7.51449V8.02188C42.2426 8.6804 42.356 9.25616 42.5827 9.74915C42.813 10.2385 43.1386 10.6182 43.5597 10.8881C43.9807 11.158 44.4791 11.2929 45.0548 11.2929C45.4471 11.2929 45.7907 11.2317 46.0858 11.1094C46.3845 10.987 46.6346 10.8233 46.8361 10.6182C47.0412 10.4095 47.1959 10.181 47.3003 9.93267L48.2125 10.2295C48.0865 10.5786 47.8796 10.9007 47.5918 11.1957C47.3075 11.4908 46.9512 11.7283 46.523 11.9082C46.0984 12.0846 45.609 12.1727 45.0548 12.1727ZM51.3013 12.081C51.089 12.081 50.9055 12.0054 50.7508 11.8543C50.5996 11.6995 50.5241 11.516 50.5241 11.3037C50.5241 11.0878 50.5996 10.9043 50.7508 10.7531C50.9055 10.602 51.089 10.5264 51.3013 10.5264C51.5173 10.5264 51.7008 10.602 51.8519 10.7531C52.0031 10.9043 52.0786 11.0878 52.0786 11.3037C52.0786 11.444 52.0426 11.5736 51.9707 11.6923C51.9023 11.8111 51.8087 11.9064 51.69 11.9784C51.5748 12.0468 51.4453 12.081 51.3013 12.081Z" fill="white"/>
</svg>
