<svg width="117" height="34" viewBox="0 0 117 34" fill="none" xmlns="https://commons.wikimedia.org/w/index.php?curid=47313704">
<path d="M0.188478 26V0.820204H10.1227C12.0325 0.820204 13.6595 1.18495 15.0037 1.91444C16.348 2.63574 17.3725 3.63982 18.0774 4.92667C18.7905 6.20534 19.1471 7.68071 19.1471 9.35281C19.1471 11.0249 18.7864 12.5003 18.0652 13.7789C17.3439 15.0576 16.2988 16.0535 14.93 16.7666C13.5693 17.4797 11.9218 17.8362 9.98745 17.8362H3.65562V13.5699H9.12681C10.1514 13.5699 10.9956 13.3937 11.6595 13.0413C12.3317 12.6806 12.8317 12.1847 13.1595 11.5536C13.4956 10.9143 13.6636 10.1807 13.6636 9.35281C13.6636 8.51676 13.4956 7.78727 13.1595 7.16433C12.8317 6.5332 12.3317 6.0455 11.6595 5.70125C10.9874 5.3488 10.135 5.17257 9.10222 5.17257H5.51214V26H0.188478ZM27.3846 26.3565C26.1797 26.3565 25.106 26.1475 24.1634 25.7295C23.2208 25.3033 22.4749 24.6763 21.9257 23.8484C21.3848 23.0124 21.1143 21.9714 21.1143 20.7255C21.1143 19.6764 21.3069 18.7952 21.6921 18.0821C22.0774 17.369 22.6019 16.7953 23.2659 16.3609C23.9298 15.9264 24.6839 15.5986 25.5281 15.3773C26.3805 15.156 27.274 15.0002 28.2084 14.9101C29.3067 14.7953 30.1919 14.6888 30.8641 14.5904C31.5362 14.4838 32.0239 14.3281 32.3271 14.1232C32.6304 13.9183 32.7821 13.615 32.7821 13.2134V13.1396C32.7821 12.3609 32.5362 11.7585 32.0444 11.3323C31.5608 10.9061 30.8723 10.6929 29.9788 10.6929C29.0362 10.6929 28.2862 10.902 27.7289 11.32C27.1715 11.7298 26.8027 12.2462 26.6223 12.8691L21.7782 12.4757C22.0241 11.3282 22.5077 10.3364 23.229 9.50035C23.9503 8.6561 24.8806 8.00858 26.0199 7.55777C27.1674 7.09876 28.4953 6.86926 30.0034 6.86926C31.0526 6.86926 32.0567 6.9922 33.0157 7.2381C33.9828 7.484 34.8394 7.86514 35.5853 8.38152C36.3394 8.8979 36.9336 9.56182 37.368 10.3733C37.8024 11.1765 38.0196 12.1396 38.0196 13.2626V26H33.0525V23.3812H32.905C32.6017 23.9714 32.196 24.4918 31.6878 24.9426C31.1796 25.3853 30.569 25.7336 29.8559 25.9877C29.1428 26.2336 28.319 26.3565 27.3846 26.3565ZM28.8846 22.7419C29.6551 22.7419 30.3354 22.5902 30.9255 22.287C31.5157 21.9755 31.9788 21.5575 32.3148 21.0329C32.6509 20.5083 32.8189 19.9141 32.8189 19.2501V17.2461C32.655 17.3526 32.4296 17.451 32.1427 17.5412C31.864 17.6231 31.5485 17.701 31.196 17.7748C30.8436 17.8403 30.4911 17.9018 30.1387 17.9592C29.7862 18.0084 29.4665 18.0534 29.1797 18.0944C28.5649 18.1846 28.0281 18.328 27.569 18.5247C27.11 18.7215 26.7535 18.9879 26.4994 19.3239C26.2453 19.6518 26.1183 20.0616 26.1183 20.5534C26.1183 21.2665 26.3764 21.8116 26.8928 22.1886C27.4174 22.5574 28.0813 22.7419 28.8846 22.7419ZM44.6404 33.0818C43.9765 33.0818 43.3535 33.0285 42.7716 32.922C42.1978 32.8236 41.7224 32.6966 41.3454 32.5408L42.5257 28.6311C43.1404 28.8196 43.6937 28.9221 44.1855 28.9385C44.6855 28.9549 45.1158 28.8401 45.4765 28.5942C45.8453 28.3483 46.1445 27.9303 46.374 27.3401L46.6813 26.541L39.9069 7.11515H45.415L49.3247 20.9837H49.5215L53.4681 7.11515H59.0131L51.673 28.0409C51.3206 29.0573 50.8411 29.9425 50.2346 30.6966C49.6362 31.4589 48.878 32.045 47.96 32.4548C47.042 32.8728 45.9355 33.0818 44.6404 33.0818ZM62.9474 0.820204H65.6031L74.7381 22.7542H74.9594L84.0945 0.820204H86.7502V26H84.5863V5.67666H84.3896L75.8938 26H73.8037L65.308 5.67666H65.1113V26H62.9474V0.820204ZM100.625 26.3934C98.8626 26.3934 97.3381 25.9836 96.0512 25.164C94.7643 24.3361 93.7685 23.1927 93.0636 21.7337C92.3669 20.2665 92.0185 18.578 92.0185 16.6682C92.0185 14.7666 92.3669 13.0781 93.0636 11.6028C93.7685 10.1192 94.7398 8.95938 95.9774 8.12333C97.2233 7.27908 98.6618 6.85696 100.293 6.85696C101.317 6.85696 102.305 7.04548 103.256 7.42252C104.207 7.79137 105.059 8.36103 105.813 9.1315C106.576 9.89378 107.178 10.8569 107.621 12.0208C108.063 13.1765 108.285 14.5453 108.285 16.1273V17.2092H93.5308V15.2789H106.047C106.047 14.0658 105.801 12.9757 105.309 12.0085C104.826 11.0331 104.149 10.2626 103.281 9.69707C102.42 9.1315 101.424 8.84872 100.293 8.84872C99.0962 8.84872 98.043 9.16839 97.1331 9.80772C96.2233 10.447 95.5102 11.2913 94.9938 12.3405C94.4857 13.3896 94.2275 14.5371 94.2193 15.783V16.9387C94.2193 18.4387 94.4775 19.7501 94.9938 20.8731C95.5184 21.9878 96.2602 22.8525 97.2192 23.4673C98.1782 24.082 99.3134 24.3894 100.625 24.3894C101.518 24.3894 102.301 24.25 102.973 23.9714C103.654 23.6927 104.223 23.3197 104.682 22.8525C105.149 22.3771 105.502 21.8566 105.74 21.2911L107.817 21.9673C107.53 22.7624 107.059 23.496 106.403 24.1681C105.756 24.8402 104.944 25.3812 103.969 25.791C103.002 26.1926 101.887 26.3934 100.625 26.3934ZM114.853 26.1844C114.369 26.1844 113.951 26.0123 113.599 25.668C113.255 25.3156 113.083 24.8976 113.083 24.414C113.083 23.9222 113.255 23.5042 113.599 23.1599C113.951 22.8156 114.369 22.6435 114.853 22.6435C115.345 22.6435 115.763 22.8156 116.107 23.1599C116.451 23.5042 116.624 23.9222 116.624 24.414C116.624 24.7336 116.542 25.0287 116.378 25.2992C116.222 25.5697 116.009 25.7869 115.738 25.9508C115.476 26.1066 115.181 26.1844 114.853 26.1844Z" fill="#0BCF4F"/>
</svg>
